<svg width="24" height="24" viewBox="0 0 24 24" fill="none" xmlns="http://www.w3.org/2000/svg">
<path d="M22 5.70902V15.289C22 18.049 19.76 20.289 17 20.289H7C6.54 20.289 6.1 20.229 5.67 20.109C5.05 19.939 4.85 19.149 5.31 18.689L15.94 8.05902C16.16 7.83902 16.49 7.78902 16.8 7.84902C17.12 7.90902 17.47 7.81902 17.72 7.57902L20.29 4.99902C21.23 4.05902 22 4.36902 22 5.70902Z" fill="#EBC93F"/>
<path d="M14.64 7.35904L4.17 17.829C3.69 18.309 2.89 18.189 2.57 17.589C2.2 16.909 2 16.119 2 15.289V5.70904C2 4.36904 2.77 4.05904 3.71 4.99904L6.29 7.58904C6.68 7.96904 7.32 7.96904 7.71 7.58904L11.29 3.99904C11.68 3.60904 12.32 3.60904 12.71 3.99904L14.65 5.93904C15.03 6.32904 15.03 6.96904 14.64 7.35904Z" fill="#EBC93F"/>
</svg>
