<svg width="24" height="24" viewBox="0 0 24 24" fill="none" xmlns="http://www.w3.org/2000/svg">
<path fill-rule="evenodd" clip-rule="evenodd" d="M3.17141 5.62312C4.17177 3.57204 6.56461 2.41029 10.566 2.03372C11.2222 1.97764 12.9108 1.99367 13.7031 2.06577C16.6001 2.33818 18.7689 3.15541 20.0333 4.43734C21.1938 5.60709 21.866 7.98667 21.986 11.2796C22.1141 15.0052 21.3538 18.226 20.0333 19.5641C18.4088 21.2145 15.0956 22.1359 11.3263 21.9837C7.05278 21.8234 4.21978 20.5656 3.16341 18.3703C1.61087 15.1574 1.61087 8.79588 3.17141 5.62312ZM11.0765 16.2951C11.0765 16.7998 11.4827 17.2183 11.9997 17.2183C12.5166 17.2183 12.9228 16.7998 12.9228 16.2951C12.9228 15.7905 12.5166 15.372 11.9997 15.372C11.4827 15.372 11.0765 15.7905 11.0765 16.2951ZM12.9228 12.984C12.9228 12.6394 13.0706 12.4301 13.5506 12.1101C13.9322 11.8516 14.9661 11.15 14.9661 9.74674C14.9661 8.10964 13.6368 6.78028 11.9997 6.78028C10.3626 6.78028 9.0332 8.10964 9.0332 9.74674C9.0332 10.2514 9.45171 10.6699 9.95638 10.6699C10.461 10.6699 10.8796 10.2514 10.8796 9.74674C10.8796 9.13129 11.3842 8.62662 11.9997 8.62662C12.6151 8.62662 13.1198 9.13129 13.1198 9.74674C13.1198 10.0668 12.9721 10.276 12.5166 10.5838L12.5024 10.5936C12.0981 10.8713 11.0765 11.5731 11.0765 12.984V13.2425C11.0765 13.7472 11.495 14.1657 11.9997 14.1657C12.5043 14.1657 12.9228 13.7472 12.9228 13.2425V12.984Z" fill="#B2B2B2"/>
</svg>
