<svg width="13" height="12" viewBox="0 0 13 12" fill="none" xmlns="http://www.w3.org/2000/svg">
<path d="M3.24499 8C3.29999 7.755 3.19999 7.405 3.02499 7.23L1.80999 6.015C1.42999 5.635 1.27999 5.23 1.38999 4.88C1.50499 4.53 1.85999 4.29 2.38999 4.2L3.94999 3.94C4.17499 3.9 4.44999 3.7 4.55499 3.495L5.41499 1.77C5.66499 1.275 6.00499 1 6.37499 1C6.74499 1 7.08499 1.275 7.33499 1.77L8.19499 3.495C8.25999 3.625 8.39499 3.75 8.53999 3.835L3.15499 9.22C3.08499 9.29 2.96499 9.225 2.98499 9.125L3.24499 8Z" fill="#E7BC0F"/>
<path d="M9.72502 7.22995C9.54502 7.40995 9.44502 7.75495 9.50502 7.99995L9.85002 9.50495C9.99502 10.1299 9.90502 10.5999 9.59502 10.8249C9.47002 10.9149 9.32002 10.9599 9.14502 10.9599C8.89002 10.9599 8.59002 10.8649 8.26002 10.6699L6.79502 9.79995C6.56502 9.66495 6.18502 9.66495 5.95502 9.79995L4.49002 10.6699C3.93502 10.9949 3.46002 11.0499 3.15502 10.8249C3.04002 10.7399 2.95502 10.6249 2.90002 10.4749L8.98002 4.39495C9.21002 4.16495 9.53502 4.05995 9.85002 4.11495L10.355 4.19995C10.885 4.28995 11.24 4.52995 11.355 4.87995C11.465 5.22995 11.315 5.63495 10.935 6.01495L9.72502 7.22995Z" fill="#E7BC0F"/>
</svg>
