<svg xmlns="http://www.w3.org/2000/svg" width="134" height="66" fill="none"><path fill="#E7BC0F" d="M43.992 33.348h-2.24v13.72c0 1.288-.812 1.96-1.96 1.96-.532 0-1.12-.168-1.68-.504V33.348h-2.24c-.868 0-1.12.252-1.12.84h-.56c-1.54 0-2.52-.56-2.52-2.156 0-1.484 1.092-2.324 3.304-2.324h9.912c2.212 0 3.304.84 3.304 2.324 0 1.596-.98 2.156-2.52 2.156h-.56c0-.588-.252-.84-1.12-.84m3.567 13.72c0-1.092.672-1.96 1.96-1.96s1.96.868 1.96 1.96-.672 1.96-1.96 1.96-1.96-.868-1.96-1.96m23.897 1.96c-1.848 0-2.94-1.092-2.94-3.668v-8.792l-2.856 5.32c-.7 1.288-1.512 1.82-2.66 1.82-.448 0-.896-.112-1.4-.28l-3.724-6.888v8.82c0 2.576-1.092 3.668-2.94 3.668-1.428 0-2.38-.616-2.38-1.82q0-.546.336-1.26c.98 0 1.344-.308 1.344-1.372V31.808c0-1.904.98-2.38 2.1-2.38.616 0 1.372.14 1.82.308l5.04 9.38 4.228-7.812c.784-1.456 1.876-1.876 3.08-1.876.616 0 1.204.14 1.652.364v14.784c0 1.064.364 1.372 1.344 1.372q.336.714.336 1.26c0 1.204-.952 1.82-2.38 1.82m3.447-7.28c0-4.032 2.715-7.28 7.28-7.28 4.563 0 7.28 3.248 7.28 7.28s-2.716 7.28-7.28 7.28c-4.565 0-7.28-3.248-7.28-7.28m3.64 0c0 2.184 1.343 3.92 3.64 3.92 2.295 0 3.64-1.736 3.64-3.92s-1.344-3.92-3.64-3.92-3.64 1.736-3.64 3.92m13.49-7.28c1.373 0 2.633.616 3.5 2.912l2.129 5.684 2.184-5.684c.868-2.296 2.128-2.912 3.5-2.912 1.568 0 2.324.7 2.324 1.708 0 .42-.112.868-.336 1.372h-.476c-.98 0-1.344.336-1.708 1.288l-3.304 8.596c-.448 1.176-1.232 1.596-2.24 1.596-.476 0-1.176-.14-1.652-.364l-3.724-9.8c-.364-.98-.728-1.316-1.708-1.316h-.476c-.224-.504-.336-.952-.336-1.372 0-1.008.756-1.708 2.324-1.708m15.544 10.528V38.92c0-1.064-.364-1.372-1.344-1.372q-.336-.714-.336-1.26c0-1.204.952-1.82 2.38-1.82 1.848 0 2.94 1.092 2.94 3.668v6.44c0 1.064.364 1.372 1.344 1.372q.336.714.336 1.26c0 1.204-.952 1.82-2.38 1.82-1.792 0-2.94-1.176-2.94-4.032m-.56-14.028c0-1.316.784-2.38 2.38-2.38s2.38 1.064 2.38 2.38-.784 2.38-2.38 2.38-2.38-1.064-2.38-2.38m6.659 10.78c0-4.9 3.248-7.28 6.972-7.28 3.836 0 6.188 2.688 6.188 6.132 0 1.428-.644 2.212-2.072 2.212h-7.308c.392 1.54 1.54 2.856 3.528 2.856 1.736 0 3.248-.756 4.144-1.876.952.308 1.428.924 1.428 1.932 0 .84-.476 1.512-1.204 2.044-1.12.812-2.856 1.26-4.648 1.26-4.144 0-7.028-2.604-7.028-7.28m6.944-3.92c-1.596 0-2.772.756-3.164 2.464h5.684c-.196-1.68-1.064-2.464-2.52-2.464"/><path fill="#E7BC0F" d="M32.638 43.216c.679 2.116-.485 4.396-2.681 4.642-3.171.356-6.41.011-9.478-1.03a22.13 22.13 0 0 1-10.823-7.991A21.8 21.8 0 0 1 5.509 26.11a21.3 21.3 0 0 1 4.106-12.628A21.3 21.3 0 0 1 20.412 5.75a21.83 21.83 0 0 1 13.389.1 22.13 22.13 0 0 1 10.895 7.893 21.9 21.9 0 0 1 3.849 8.712c.431 2.172-1.378 3.972-3.587 3.966l-9.39-.027c-1.768-.005-3.154-1.574-4.209-3.007a5.23 5.23 0 0 0-2.574-1.865 5.16 5.16 0 0 0-3.162-.023 5.04 5.04 0 0 0-2.55 1.826 5.03 5.03 0 0 0-.97 2.983 5.15 5.15 0 0 0 .979 3.007 5.23 5.23 0 0 0 2.557 1.887c1.689.573 3.603 1.427 4.148 3.125z"/></svg>